<svg xmlns="http://www.w3.org/2000/svg" width="805" height="600"><rect width="805" height="600" x="0" y="0" fill="#FFFFFF" id="background"/><g transform="translate(10,10)" id="visualization"><g><rect x="0" y="0" height="22.70833333333337" width="5" fill="black"><title>28: 1</title></rect><rect x="0" y="27.70833333333337" height="22.70833333333337" width="5" fill="black"><title>23: 1</title></rect><rect x="0" y="55.41666666666674" height="45.41666666666666" width="5" fill="black"><title>21: 2</title></rect><rect x="0" y="105.8333333333334" height="45.41666666666666" width="5" fill="black"><title>19: 2</title></rect><rect x="0" y="156.25000000000006" height="45.41666666666666" width="5" fill="black"><title>25: 2</title></rect><rect x="0" y="206.6666666666667" height="90.83333333333334" width="5" fill="black"><title>20: 4</title></rect><rect x="780" y="15" height="90.83333333333337" width="5" fill="black"><title>F: 4</title></rect><rect x="0" y="302.50000000000006" height="113.54166666666663" width="5" fill="black"><title>24: 5</title></rect><rect x="0" y="421.0416666666667" height="158.95833333333331" width="5" fill="black"><title>22: 7</title></rect><rect x="780" y="110.83333333333337" height="454.16666666666663" width="5" fill="black"><title>M: 20</title></rect></g><g fill="none" stroke-opacity="1"><g style="mix-blend-mode: multiply;"><path d="M5,78.12500000000007C392.5,78.12500000000007,392.5,178.9583333333334,780,178.9583333333334" stroke="#2ca02c" stroke-width="45.416666666666664"/><title>21 → M: 2</title></g><g style="mix-blend-mode: multiply;"><path d="M5,252.08333333333337C392.5,252.08333333333337,392.5,269.79166666666674,780,269.79166666666674" stroke="#ff7f0e" stroke-width="90.83333333333333"/><title>20 → M: 4</title></g><g style="mix-blend-mode: multiply;"><path d="M5,128.54166666666674C392.5,128.54166666666674,392.5,37.70833333333333,780,37.70833333333333" stroke="#1f77b4" stroke-width="45.416666666666664"/><title>19 → F: 2</title></g><g style="mix-blend-mode: multiply;"><path d="M5,167.6041666666667C392.5,167.6041666666667,392.5,71.77083333333333,780,71.77083333333333" stroke="#e377c2" stroke-width="22.708333333333332"/><title>25 → F: 1</title></g><g style="mix-blend-mode: multiply;"><path d="M5,511.875C392.5,511.875,392.5,496.875,780,496.875" stroke="#d62728" stroke-width="136.25"/><title>22 → M: 6</title></g><g style="mix-blend-mode: multiply;"><path d="M5,432.39583333333337C392.5,432.39583333333337,392.5,94.47916666666667,780,94.47916666666667" stroke="#d62728" stroke-width="22.708333333333332"/><title>22 → F: 1</title></g><g style="mix-blend-mode: multiply;"><path d="M5,190.31250000000006C392.5,190.31250000000006,392.5,213.02083333333337,780,213.02083333333337" stroke="#e377c2" stroke-width="22.708333333333332"/><title>25 → M: 1</title></g><g style="mix-blend-mode: multiply;"><path d="M5,359.27083333333337C392.5,359.27083333333337,392.5,371.9791666666667,780,371.9791666666667" stroke="#8c564b" stroke-width="113.54166666666666"/><title>24 → M: 5</title></g><g style="mix-blend-mode: multiply;"><path d="M5,11.354166666666666C392.5,11.354166666666666,392.5,122.18750000000004,780,122.18750000000004" stroke="#7f7f7f" stroke-width="22.708333333333332"/><title>28 → M: 1</title></g><g style="mix-blend-mode: multiply;"><path d="M5,39.062500000000036C392.5,39.062500000000036,392.5,144.89583333333337,780,144.89583333333337" stroke="#9467bd" stroke-width="22.708333333333332"/><title>23 → M: 1</title></g></g><g><text x="9" y="11.354166666666686" text-anchor="start"><tspan alignment-baseline="middle" x="9" style="font-family: Arial, sans-serif; font-size: 10px; fill: black; font-weight: bold;">28</tspan></text><text x="9" y="39.06250000000006" text-anchor="start"><tspan alignment-baseline="middle" x="9" style="font-family: Arial, sans-serif; font-size: 10px; fill: black; font-weight: bold;">23</tspan></text><text x="9" y="78.12500000000007" text-anchor="start"><tspan alignment-baseline="middle" x="9" style="font-family: Arial, sans-serif; font-size: 10px; fill: black; font-weight: bold;">21</tspan></text><text x="9" y="128.54166666666674" text-anchor="start"><tspan alignment-baseline="middle" x="9" style="font-family: Arial, sans-serif; font-size: 10px; fill: black; font-weight: bold;">19</tspan></text><text x="9" y="178.95833333333337" text-anchor="start"><tspan alignment-baseline="middle" x="9" style="font-family: Arial, sans-serif; font-size: 10px; fill: black; font-weight: bold;">25</tspan></text><text x="9" y="252.08333333333337" text-anchor="start"><tspan alignment-baseline="middle" x="9" style="font-family: Arial, sans-serif; font-size: 10px; fill: black; font-weight: bold;">20</tspan></text><text x="776" y="60.416666666666686" text-anchor="end"><tspan alignment-baseline="middle" x="776" style="font-family: Arial, sans-serif; font-size: 10px; fill: black; font-weight: bold;">F</tspan></text><text x="9" y="359.27083333333337" text-anchor="start"><tspan alignment-baseline="middle" x="9" style="font-family: Arial, sans-serif; font-size: 10px; fill: black; font-weight: bold;">24</tspan></text><text x="9" y="500.52083333333337" text-anchor="start"><tspan alignment-baseline="middle" x="9" style="font-family: Arial, sans-serif; font-size: 10px; fill: black; font-weight: bold;">22</tspan></text><text x="776" y="337.9166666666667" text-anchor="end"><tspan alignment-baseline="middle" x="776" style="font-family: Arial, sans-serif; font-size: 10px; fill: black; font-weight: bold;">M</tspan></text></g><g><text x="2.5" y="-4" text-anchor="middle" style="font-family: Arial, sans-serif; font-size: 12px; fill: rgb(123, 123, 123); font-weight: bold;">edad</text><text x="782.5" y="11" text-anchor="middle" style="font-family: Arial, sans-serif; font-size: 12px; fill: rgb(123, 123, 123); font-weight: bold;">gender</text></g></g></svg>